<?xml version="1.0" encoding="UTF-8" standalone="no"?>
<svg
   version="1.0"
   width="1254"
   height="1254"
   viewBox="0 0 1254 1254"
   preserveAspectRatio="xMidYMid"
   id="svg7"
   sodipodi:docname="paynest.svg"
   inkscape:version="1.4.4 (dcaf3e7, 2026-05-05)"
   inkscape:export-filename="paynest.png"
   inkscape:export-xdpi="96"
   inkscape:export-ydpi="96"
   xmlns:inkscape="http://www.inkscape.org/namespaces/inkscape"
   xmlns:sodipodi="http://sodipodi.sourceforge.net/DTD/sodipodi-0.dtd"
   xmlns:xlink="http://www.w3.org/1999/xlink"
   xmlns="http://www.w3.org/2000/svg"
   xmlns:svg="http://www.w3.org/2000/svg">
  <defs
     id="defs7">
    <linearGradient
       id="linearGradient7"
       inkscape:collect="always">
      <stop
         style="stop-color:#00c800;stop-opacity:1;"
         offset="0"
         id="stop7" />
      <stop
         style="stop-color:#006700;stop-opacity:1;"
         offset="1"
         id="stop8" />
    </linearGradient>
    <linearGradient
       inkscape:collect="always"
       xlink:href="#linearGradient7"
       id="linearGradient8"
       x1="630.065"
       y1="65.367798"
       x2="630.065"
       y2="1178.5378"
       gradientUnits="userSpaceOnUse" />
  </defs>
  <sodipodi:namedview
     id="namedview7"
     pagecolor="#ffffff"
     bordercolor="#000000"
     borderopacity="0.25"
     inkscape:showpageshadow="2"
     inkscape:pageopacity="0.0"
     inkscape:pagecheckerboard="0"
     inkscape:deskcolor="#d1d1d1"
     inkscape:zoom="0.49601276"
     inkscape:cx="625.99196"
     inkscape:cy="627"
     inkscape:window-width="1512"
     inkscape:window-height="841"
     inkscape:window-x="0"
     inkscape:window-y="33"
     inkscape:window-maximized="0"
     inkscape:current-layer="svg7"
     showgrid="false"
     showborder="true" />
  <g
     fill="#000000"
     id="g4"
     style="fill:url(#linearGradient8);fill-opacity:1">
    <path
       d="m 492.17,1087.33 c -37.72,-1.96 -83.27,-8.69 -119.77,-17.63 -20.08,-5.02 -21.8,-5.63 -25.47,-9.67 -3.8,-4.16 -4.04,-4.9 -4.04,-13.59 0,-21.43 10.53,-25.72 43.11,-17.76 18.12,4.41 59.64,11.39 84.87,14.33 23.27,2.57 77.76,2.94 99.81,0.49 8.45,-0.86 15.8,-1.96 16.41,-2.33 3.06,-1.84 -78.13,-25.23 -98.83,-28.41 -51.43,-8.08 -71.27,-10.65 -75.44,-9.67 -9.43,2.08 -34.53,4.78 -56.33,6.12 -65.88,3.92 -132.01,-6.12 -189.94,-28.9 -15.68,-6.25 -22.04,-9.55 -25.72,-13.47 -2.82,-2.94 -3.06,-4.29 -3.06,-14.08 0,-10.29 0.12,-11.02 3.55,-14.57 7.47,-7.72 19.23,-8.08 35.64,-1.1 29.51,12.74 72.01,23.76 107.15,27.8 26.7,3.06 26.7,3.92 0,-9.43 -56.7,-28.53 -103.97,-60.86 -149.16,-102.25 -17.14,-15.8 -41.02,-41.39 -44.58,-47.88 -2.82,-5.02 -2.82,-16.78 -0.12,-22.41 3.55,-7.59 13.72,-11.39 24.86,-9.55 4.65,0.73 7.47,3.18 29.15,24.98 25.59,25.59 43.23,41.27 66.25,58.78 39.31,29.76 87.56,57.43 130.54,74.58 25.72,10.29 26.21,10.16 10.41,-0.37 -37.96,-25.47 -64.9,-46.9 -98.34,-78.5 -29.76,-28.04 -57.56,-61.11 -64.41,-76.54 -1.96,-4.29 -4.65,-6.49 -18.61,-15.43 C 139.36,741.28 109.73,717.03 88.05,693.88 74.7,679.55 73.48,677.23 73.48,666.57 c 0,-9.55 2.57,-15.06 8.45,-18.12 4.29,-2.2 19.84,-2.57 23.63,-0.49 1.47,0.73 9.31,8.08 17.39,16.29 29.39,29.64 66.37,56.82 106.05,77.76 l 12.86,6.74 -6.86,-7.47 c -28.04,-30.49 -54.98,-78.99 -62.46,-112.17 -1.1,-5.39 -2.33,-7.72 -4.65,-9.18 -36.13,-22.17 -52.9,-42.49 -60.13,-72.86 -4.16,-17.27 -3.18,-47.39 1.96,-63.56 l 1.96,-5.88 h 7.1 c 5.88,0 8.82,0.86 17.02,5.02 25.59,12.74 45.07,32.94 54.74,56.82 6.37,15.55 7.96,25.35 7.72,48 0,11.51 0.49,20.7 1.1,22.04 1.1,1.84 1.35,1.84 1.84,0.37 0.24,-0.98 1.96,-7.84 3.8,-15.31 4.16,-17.02 12,-35.51 21.8,-51.92 9.43,-15.8 11.88,-17.63 22.9,-18.25 9.18,-0.49 13.23,0.86 18.49,6.49 2.57,2.82 3.06,4.65 3.43,12.74 l 0.49,9.43 -7.47,14.08 c -14.94,28.29 -20.57,46.66 -21.8,70.29 -0.61,12.49 -0.37,16.16 1.96,25.1 4.78,19.23 16.65,36.37 43.47,63.07 61.11,60.86 153.81,105.93 262.19,127.24 77.89,15.43 154.18,13.72 228.51,-4.9 65.64,-16.41 120.01,-42.25 166.79,-79.11 16.29,-12.86 49.47,-46.29 59.88,-60.37 15.19,-20.33 19.35,-32.21 19.35,-55.47 0,-15.55 -3.18,-31.84 -9.8,-50.7 -3.92,-11.14 -4.9,-15.55 -4.9,-22.66 0,-7.72 0.37,-9.18 3.31,-12.74 4.16,-5.02 9.67,-7.23 17.51,-7.23 6.86,0 11.39,1.84 15.55,6.37 3.8,4.16 11.14,22.78 15.06,38.33 l 3.43,13.35 1.84,-4.16 c 0.98,-2.33 3.8,-8.57 6.25,-13.84 l 4.41,-9.55 v -20.21 c 0,-22.66 1.71,-33.68 7.47,-48.13 9.67,-24.37 27.31,-44.94 49.72,-58.41 19.96,-12 38.82,-17.39 41.76,-12 4.9,9.18 5.02,50.82 0.37,68.46 -3.31,12.74 -10.9,28.29 -18.61,38.82 -11.02,14.82 -30.74,31.35 -46.78,39.07 -4.9,2.45 -6,3.55 -7.1,7.84 -11.27,44.21 -22.9,71.27 -45.31,105.32 -13.72,20.94 -19.47,28.41 -38.33,49.6 l -14.82,16.41 8.57,-4.78 c 29.76,-16.53 49.35,-31.23 76.42,-57.56 18.98,-18.37 34.41,-35.88 49.6,-56.21 6,-7.84 12.25,-15.31 13.96,-16.41 4.41,-2.94 19.35,-2.82 23.88,0.12 5.76,3.8 8.2,9.06 8.2,18.12 0,6.98 -0.49,8.94 -4.41,15.31 -5.02,8.45 -14.57,21.31 -26.57,36 -11.76,14.33 -49.23,51.43 -62.94,62.33 -6.25,4.9 -11.39,9.55 -11.39,10.16 0,2.33 -9.18,25.59 -15.43,38.58 l -6.37,13.84 7.47,-5.14 c 21.68,-14.57 51.19,-37.96 66.99,-53.03 13.1,-12.49 13.72,-12.86 24.49,-12.86 15.43,0 19.47,4.29 19.59,20.7 v 10.29 l -11.27,11.63 c -38.33,39.19 -101.77,83.03 -197.04,136.05 -11.02,6.25 -18.74,11.02 -17.02,10.65 31.47,-6.61 54.62,-13.1 75.19,-21.19 11.63,-4.41 42,-19.1 55.84,-26.82 7.35,-4.04 8.57,-4.41 16.29,-3.92 7.59,0.37 8.57,0.86 12.74,4.9 3.8,3.8 4.53,5.51 5.02,11.27 1.22,14.7 -1.47,18.61 -19.72,29.27 -40.9,24.12 -90.25,41.39 -146.59,51.56 -30.25,5.39 -48.74,7.1 -86.33,7.59 l -35.51,0.61 -17.14,4.16 c -23.02,5.76 -50.7,10.41 -61.23,10.41 -15.43,0 -20.7,-5.88 -19.96,-22.17 0.37,-8.08 0.86,-9.92 3.43,-12.74 4.53,-4.9 5.88,-5.39 23.63,-8.45 54.86,-9.92 114.87,-32.33 163.49,-61.23 37.84,-22.53 65.39,-50.7 90.01,-92.21 0.49,-0.73 -7.1,1.84 -16.9,5.76 -28.17,11.51 -62.33,22.04 -110.83,34.41 -2.33,0.49 -8.69,4.53 -14.08,8.82 -65.39,51.68 -112.05,78.99 -175.61,102.62 -17.51,6.49 -57.31,18 -71.39,20.7 -4.65,0.86 -8.33,1.84 -8.33,2.33 0,1.84 49.23,15.8 75.19,21.43 43.96,9.55 71.15,12.98 112.42,13.84 39.68,0.86 77.4,-2.2 108.5,-8.69 12.61,-2.69 25.59,-2.57 30.37,0.37 5.27,3.18 7.84,9.31 7.84,18.49 0,8.69 -2.57,13.96 -8.33,17.39 -3.8,2.33 -35.27,8.45 -57.8,11.27 -51.31,6.61 -115.24,5.27 -174.51,-3.8 -11.39,-1.71 -21.68,-3.06 -22.66,-3.06 -0.98,0 -8.45,1.71 -16.53,3.8 -55.23,13.84 -114.99,19.23 -177.08,15.92 z m 60.74,-122.46 c 18.25,-1.59 45.31,-6.12 65.52,-11.02 35.88,-8.69 90.62,-29.51 119.28,-45.43 11.02,-6.12 16.53,-9.55 15.31,-9.55 -0.24,0 -8.2,1.1 -17.63,2.33 -31.23,4.41 -51.68,5.39 -94.91,4.65 -50.45,-0.73 -76.91,-3.67 -122.83,-13.72 -37.23,-8.2 -49.6,-11.76 -132.5,-37.96 C 332,837.27 317.92,832.49 298.2,824.66 l -13.47,-5.27 4.41,3.92 c 20.7,18.49 35.39,31.23 45.19,39.07 48.37,38.7 116.09,77.27 174.51,99.56 14.82,5.63 13.47,5.51 44.09,2.94 z"
       id="path1"
       style="display:inline;fill:url(#linearGradient8);fill-opacity:1" />
    <path
       d="m 615.98,828.33 c -2.33,-0.24 -11.14,-1.1 -19.59,-1.71 -54.98,-4.65 -117.68,-21.19 -166.18,-43.96 -41.02,-19.1 -71.52,-39.8 -100.42,-67.97 L 314.73,700.12 V 528.55 c 0,-191.04 -0.37,-180.51 8.57,-198.63 8.33,-16.9 23.63,-30 43.11,-36.86 7.96,-2.82 11.27,-3.31 29.39,-3.8 18.98,-0.49 20.33,-0.37 21.06,1.84 2.08,6.61 6.86,31.59 6.86,35.76 v 4.65 L 410,332.12 c -15.31,0.73 -23.88,3.18 -32.7,9.55 -6.12,4.53 -11.88,12.25 -13.84,18.61 -1.59,5.39 -0.73,7.1 2.33,4.41 3.43,-2.94 11.27,-6.61 20.45,-9.43 l 8.33,-2.57 h 263.54 c 287.42,0 269.41,-0.49 283.86,6.86 7.59,3.8 19.1,14.57 24.12,22.41 1.96,3.06 4.9,9.18 6.37,13.59 2.69,7.47 2.82,10.29 3.31,46.78 l 0.49,38.82 -72.74,0.49 c -69.8,0.37 -72.86,0.49 -79.97,2.94 -18.37,6.37 -32.08,14.57 -43.35,26.08 -36.25,36.86 -39.31,89.76 -7.35,129.2 10.04,12.37 24.86,23.27 39.68,29.27 15.8,6.37 23.27,6.86 94.42,6.86 h 65.39 v 17.51 17.51 l -8.82,8.69 c -17.14,16.65 -40.41,33.92 -66.37,49.23 -54.25,31.96 -125.89,53.15 -199,58.78 -14.94,1.22 -71.39,1.59 -82.17,0.61 z"
       id="path2"
       style="display:inline;fill:url(#linearGradient8);fill-opacity:1" />
    <path
       d="m 833.35,654.31 c -22.78,-3.06 -45.43,-18.98 -54.86,-38.45 -6.25,-12.74 -8.2,-21.43 -8.2,-36.62 0,-15.68 1.96,-24.12 8.69,-37.6 9.18,-18.37 28.78,-33.55 48.74,-37.84 6.37,-1.35 22.78,-1.71 78.38,-1.71 h 70.29 l 5.02,2.94 c 2.82,1.59 6.25,5.14 7.84,7.84 2.69,4.9 2.69,4.9 2.69,66.01 0,69.31 0.37,66.74 -9.92,72.62 l -5.39,3.06 -69.8,0.12 c -38.33,0.12 -71.39,-0.12 -73.48,-0.37 z m 30.86,-53.39 c 5.39,-2.82 12.37,-11.51 13.96,-17.27 3.55,-12.98 -10.65,-29.64 -24.61,-29.39 -11.76,0.37 -24.86,13.47 -24.86,24.98 0,7.59 6.61,17.63 14.45,21.8 7.72,4.04 12.98,4.04 21.06,-0.12 z"
       id="path3"
       style="display:inline;fill:url(#linearGradient8);fill-opacity:1" />
    <path
       d="m 953.48,345.34 c -3.92,-2.69 -10.29,-6 -14.08,-7.47 -16.53,-6.25 -6,-6 -258.76,-6 h -236.1 l -0.61,-2.69 c -0.37,-1.59 -1.96,-8.57 -3.55,-15.68 -4.16,-18.49 -4.65,-23.27 -3.31,-31.96 2.45,-15.31 11.63,-24.74 27.8,-29.02 8.82,-2.2 67.72,-16.78 281.54,-69.56 114.99,-28.29 112.66,-27.8 122.46,-27.19 14.45,0.98 25.96,7.96 31.11,18.74 2.33,4.9 13.1,51.43 22.9,98.09 l 3.31,16.16 5.39,0.73 c 13.84,1.84 29.76,14.33 34.41,26.7 1.47,4.29 2.57,11.27 3.06,20.33 l 0.86,13.72 -4.65,-0.12 c -3.06,0 -6.74,-1.59 -11.76,-4.78 z"
       id="path4"
       style="display:inline;fill:url(#linearGradient8);fill-opacity:1" />
  </g>
</svg>
