<?xml version="1.0" encoding="utf-8"?>
<!DOCTYPE svg PUBLIC "-//W3C//DTD SVG 1.0//EN" "http://www.w3.org/TR/2001/REC-SVG-20010904/DTD/svg10.dtd">
<svg version="1.0" xmlns="http://www.w3.org/2000/svg" width="1254px" height="1254px" viewBox="0 0 1254 1254" preserveAspectRatio="xMidYMid meet">
 <g fill="#000000">
  <path d="M492.17 1087.33 c-37.72 -1.96 -83.27 -8.69 -119.77 -17.63 -20.08 -5.02 -21.80 -5.63 -25.47 -9.67 -3.80 -4.16 -4.04 -4.90 -4.04 -13.59 0 -21.43 10.53 -25.72 43.11 -17.76 18.12 4.41 59.64 11.39 84.87 14.33 23.27 2.57 77.76 2.94 99.81 0.49 8.45 -0.86 15.80 -1.96 16.41 -2.33 3.06 -1.84 -78.13 -25.23 -98.83 -28.41 -51.43 -8.08 -71.27 -10.65 -75.44 -9.67 -9.43 2.08 -34.53 4.78 -56.33 6.12 -65.88 3.92 -132.01 -6.12 -189.94 -28.90 -15.68 -6.25 -22.04 -9.55 -25.72 -13.47 -2.82 -2.94 -3.06 -4.29 -3.06 -14.08 0 -10.29 0.12 -11.02 3.55 -14.57 7.47 -7.72 19.23 -8.08 35.64 -1.10 29.51 12.74 72.01 23.76 107.15 27.80 26.70 3.06 26.70 3.92 0 -9.43 -56.70 -28.53 -103.97 -60.86 -149.16 -102.25 -17.14 -15.80 -41.02 -41.39 -44.58 -47.88 -2.82 -5.02 -2.82 -16.78 -0.12 -22.41 3.55 -7.59 13.72 -11.39 24.86 -9.55 4.65 0.73 7.47 3.18 29.15 24.98 25.59 25.59 43.23 41.27 66.25 58.78 39.31 29.76 87.56 57.43 130.54 74.58 25.72 10.29 26.21 10.16 10.41 -0.37 -37.96 -25.47 -64.90 -46.90 -98.34 -78.50 -29.76 -28.04 -57.56 -61.11 -64.41 -76.54 -1.96 -4.29 -4.65 -6.49 -18.61 -15.43 -30.74 -19.59 -60.37 -43.84 -82.05 -66.99 -13.35 -14.33 -14.57 -16.65 -14.57 -27.31 0 -9.55 2.57 -15.06 8.45 -18.12 4.29 -2.20 19.84 -2.57 23.63 -0.49 1.47 0.73 9.31 8.08 17.39 16.29 29.39 29.64 66.37 56.82 106.05 77.76 l12.86 6.74 -6.86 -7.47 c-28.04 -30.49 -54.98 -78.99 -62.46 -112.17 -1.10 -5.39 -2.33 -7.72 -4.65 -9.18 -36.13 -22.17 -52.90 -42.49 -60.13 -72.86 -4.16 -17.27 -3.18 -47.39 1.96 -63.56 l1.96 -5.88 7.10 0 c5.88 0 8.82 0.86 17.02 5.02 25.59 12.74 45.07 32.94 54.74 56.82 6.37 15.55 7.96 25.35 7.72 48 0 11.51 0.49 20.70 1.10 22.04 1.10 1.84 1.35 1.84 1.84 0.37 0.24 -0.98 1.96 -7.84 3.80 -15.31 4.16 -17.02 12 -35.51 21.80 -51.92 9.43 -15.80 11.88 -17.63 22.90 -18.25 9.18 -0.49 13.23 0.86 18.49 6.49 2.57 2.82 3.06 4.65 3.43 12.74 l0.49 9.43 -7.47 14.08 c-14.94 28.29 -20.57 46.66 -21.80 70.29 -0.61 12.49 -0.37 16.16 1.96 25.10 4.78 19.23 16.65 36.37 43.47 63.07 61.11 60.86 153.81 105.93 262.19 127.24 77.89 15.43 154.18 13.72 228.51 -4.90 65.64 -16.41 120.01 -42.25 166.79 -79.11 16.29 -12.86 49.47 -46.29 59.88 -60.37 15.19 -20.33 19.35 -32.21 19.35 -55.47 0 -15.55 -3.18 -31.84 -9.80 -50.70 -3.92 -11.14 -4.90 -15.55 -4.90 -22.66 0 -7.72 0.37 -9.18 3.31 -12.74 4.16 -5.02 9.67 -7.23 17.51 -7.23 6.86 0 11.39 1.84 15.55 6.37 3.80 4.16 11.14 22.78 15.06 38.33 l3.43 13.35 1.84 -4.16 c0.98 -2.33 3.80 -8.57 6.25 -13.84 l4.41 -9.55 0 -20.21 c0 -22.66 1.71 -33.68 7.47 -48.13 9.67 -24.37 27.31 -44.94 49.72 -58.41 19.96 -12 38.82 -17.39 41.76 -12 4.90 9.18 5.02 50.82 0.37 68.46 -3.31 12.74 -10.90 28.29 -18.61 38.82 -11.02 14.82 -30.74 31.35 -46.78 39.07 -4.90 2.45 -6 3.55 -7.10 7.84 -11.27 44.21 -22.90 71.27 -45.31 105.32 -13.72 20.94 -19.47 28.41 -38.33 49.60 l-14.82 16.41 8.57 -4.78 c29.76 -16.53 49.35 -31.23 76.42 -57.56 18.98 -18.37 34.41 -35.88 49.60 -56.21 6 -7.84 12.25 -15.31 13.96 -16.41 4.41 -2.94 19.35 -2.82 23.88 0.12 5.76 3.80 8.20 9.06 8.20 18.12 0 6.98 -0.49 8.94 -4.41 15.31 -5.02 8.45 -14.57 21.31 -26.57 36 -11.76 14.33 -49.23 51.43 -62.94 62.33 -6.25 4.90 -11.39 9.55 -11.39 10.16 0 2.33 -9.18 25.59 -15.43 38.58 l-6.37 13.84 7.47 -5.14 c21.68 -14.57 51.19 -37.96 66.99 -53.03 13.10 -12.49 13.72 -12.86 24.49 -12.86 15.43 0 19.47 4.29 19.59 20.70 l0 10.29 -11.27 11.63 c-38.33 39.19 -101.77 83.03 -197.04 136.05 -11.02 6.25 -18.74 11.02 -17.02 10.65 31.47 -6.61 54.62 -13.10 75.19 -21.19 11.63 -4.41 42 -19.10 55.84 -26.82 7.35 -4.04 8.57 -4.41 16.29 -3.92 7.59 0.37 8.57 0.86 12.74 4.90 3.80 3.80 4.53 5.51 5.02 11.27 1.22 14.70 -1.47 18.61 -19.72 29.27 -40.90 24.12 -90.25 41.39 -146.59 51.56 -30.25 5.39 -48.74 7.10 -86.33 7.59 l-35.51 0.61 -17.14 4.16 c-23.02 5.76 -50.70 10.41 -61.23 10.41 -15.43 0 -20.70 -5.88 -19.96 -22.17 0.37 -8.08 0.86 -9.92 3.43 -12.74 4.53 -4.90 5.88 -5.39 23.63 -8.45 54.86 -9.92 114.87 -32.33 163.49 -61.23 37.84 -22.53 65.39 -50.70 90.01 -92.21 0.49 -0.73 -7.10 1.84 -16.90 5.76 -28.17 11.51 -62.33 22.04 -110.83 34.41 -2.33 0.49 -8.69 4.53 -14.08 8.82 -65.39 51.68 -112.05 78.99 -175.61 102.62 -17.51 6.49 -57.31 18 -71.39 20.70 -4.65 0.86 -8.33 1.84 -8.33 2.33 0 1.84 49.23 15.80 75.19 21.43 43.96 9.55 71.15 12.98 112.42 13.84 39.68 0.86 77.40 -2.20 108.50 -8.69 12.61 -2.69 25.59 -2.57 30.37 0.37 5.27 3.18 7.84 9.31 7.84 18.49 0 8.69 -2.57 13.96 -8.33 17.39 -3.80 2.33 -35.27 8.45 -57.80 11.27 -51.31 6.61 -115.24 5.27 -174.51 -3.80 -11.39 -1.71 -21.68 -3.06 -22.66 -3.06 -0.98 0 -8.45 1.71 -16.53 3.80 -55.23 13.84 -114.99 19.23 -177.08 15.92z m60.74 -122.46 c18.25 -1.59 45.31 -6.12 65.52 -11.02 35.88 -8.69 90.62 -29.51 119.28 -45.43 11.02 -6.12 16.53 -9.55 15.31 -9.55 -0.24 0 -8.20 1.10 -17.63 2.33 -31.23 4.41 -51.68 5.39 -94.91 4.65 -50.45 -0.73 -76.91 -3.67 -122.83 -13.72 -37.23 -8.20 -49.60 -11.76 -132.50 -37.96 -53.15 -16.90 -67.23 -21.68 -86.95 -29.51 l-13.47 -5.27 4.41 3.92 c20.70 18.49 35.39 31.23 45.19 39.07 48.37 38.70 116.09 77.27 174.51 99.56 14.82 5.63 13.47 5.51 44.09 2.94z"/>
  <path d="M615.98 828.33 c-2.33 -0.24 -11.14 -1.10 -19.59 -1.71 -54.98 -4.65 -117.68 -21.19 -166.18 -43.96 -41.02 -19.10 -71.52 -39.80 -100.42 -67.97 l-15.06 -14.57 0 -171.57 c0 -191.04 -0.37 -180.51 8.57 -198.63 8.33 -16.90 23.63 -30 43.11 -36.86 7.96 -2.82 11.27 -3.31 29.39 -3.80 18.98 -0.49 20.33 -0.37 21.06 1.84 2.08 6.61 6.86 31.59 6.86 35.76 l0 4.65 -13.72 0.61 c-15.31 0.73 -23.88 3.18 -32.70 9.55 -6.12 4.53 -11.88 12.25 -13.84 18.61 -1.59 5.39 -0.73 7.10 2.33 4.41 3.43 -2.94 11.27 -6.61 20.45 -9.43 l8.33 -2.57 263.54 0 c287.42 0 269.41 -0.49 283.86 6.86 7.59 3.80 19.10 14.57 24.12 22.41 1.96 3.06 4.90 9.18 6.37 13.59 2.69 7.47 2.82 10.29 3.31 46.78 l0.49 38.82 -72.74 0.49 c-69.80 0.37 -72.86 0.49 -79.97 2.94 -18.37 6.37 -32.08 14.57 -43.35 26.08 -36.25 36.86 -39.31 89.76 -7.35 129.20 10.04 12.37 24.86 23.27 39.68 29.27 15.80 6.37 23.27 6.86 94.42 6.86 l65.39 0 0 17.51 0 17.51 -8.82 8.69 c-17.14 16.65 -40.41 33.92 -66.37 49.23 -54.25 31.96 -125.89 53.15 -199 58.78 -14.94 1.22 -71.39 1.59 -82.17 0.61z"/>
  <path d="M833.35 654.31 c-22.78 -3.06 -45.43 -18.98 -54.86 -38.45 -6.25 -12.74 -8.20 -21.43 -8.20 -36.62 0 -15.68 1.96 -24.12 8.69 -37.60 9.18 -18.37 28.78 -33.55 48.74 -37.84 6.37 -1.35 22.78 -1.71 78.38 -1.71 l70.29 0 5.02 2.94 c2.82 1.59 6.25 5.14 7.84 7.84 2.69 4.90 2.69 4.90 2.69 66.01 0 69.31 0.37 66.74 -9.92 72.62 l-5.39 3.06 -69.80 0.12 c-38.33 0.12 -71.39 -0.12 -73.48 -0.37z m30.86 -53.39 c5.39 -2.82 12.37 -11.51 13.96 -17.27 3.55 -12.98 -10.65 -29.64 -24.61 -29.39 -11.76 0.37 -24.86 13.47 -24.86 24.98 0 7.59 6.61 17.63 14.45 21.80 7.72 4.04 12.98 4.04 21.06 -0.12z"/>
  <path d="M953.48 345.34 c-3.92 -2.69 -10.29 -6 -14.08 -7.47 -16.53 -6.25 -6 -6 -258.76 -6 l-236.10 0 -0.61 -2.69 c-0.37 -1.59 -1.96 -8.57 -3.55 -15.68 -4.16 -18.49 -4.65 -23.27 -3.31 -31.96 2.45 -15.31 11.63 -24.74 27.80 -29.02 8.82 -2.20 67.72 -16.78 281.54 -69.56 114.99 -28.29 112.66 -27.80 122.46 -27.19 14.45 0.98 25.96 7.96 31.11 18.74 2.33 4.90 13.10 51.43 22.90 98.09 l3.31 16.16 5.39 0.73 c13.84 1.84 29.76 14.33 34.41 26.70 1.47 4.29 2.57 11.27 3.06 20.33 l0.86 13.72 -4.65 -0.12 c-3.06 0 -6.74 -1.59 -11.76 -4.78z"/>
 </g>
 <g fill="#ffffff">
  <path d="M0 627 l0 -627 627 0 627 0 0 627 0 627 -627 0 -627 0 0 -627z m555.36 456.78 c39.68 -2.08 75.31 -7.35 112.91 -16.78 l17.51 -4.29 10.65 1.84 c61.23 10.90 128.58 13.23 182.83 6.25 22.53 -2.82 54.01 -8.94 57.80 -11.27 14.57 -8.57 8.45 -30.86 -8.45 -30.86 -2.82 0 -9.18 0.86 -14.08 1.96 -32.08 6.74 -68.46 9.55 -112.79 8.69 -45.07 -0.98 -69.93 -3.92 -115.60 -13.84 -29.88 -6.49 -90.87 -24.49 -88.91 -26.21 0.61 -0.49 7.59 -2.08 15.68 -3.67 31.96 -6.12 74.09 -19.35 108.50 -34.17 46.54 -19.84 90.38 -47.15 144.99 -90.38 5.39 -4.29 11.76 -8.33 14.08 -8.82 60.86 -15.43 106.79 -30.74 134.71 -44.82 4.78 -2.33 8.57 -3.92 8.57 -3.55 0 1.35 -8.57 16.29 -15.68 27.43 -22.66 35.15 -47.76 59.64 -82.54 80.33 -48.62 28.90 -108.62 51.31 -163.49 61.23 -17.63 3.06 -19.10 3.67 -23.51 8.33 -3.92 4.16 -4.90 13.47 -2.08 18.98 2.69 5.14 8.69 8.69 14.82 8.69 7.47 0 38.09 -5.51 58.17 -10.53 l17.76 -4.41 34.90 -0.37 c37.11 -0.37 54.25 -1.84 85.72 -7.47 56.33 -10.16 105.68 -27.43 146.59 -51.56 17.27 -10.04 21.31 -15.43 19.47 -25.35 -1.10 -5.51 -7.84 -11.76 -13.72 -12.61 -3.92 -0.49 -6.25 0.24 -12.74 3.80 -48.25 26.57 -85.97 39.92 -138.38 49.11 -23.63 4.04 -25.96 3.92 -16.53 -0.86 13.72 -6.98 53.76 -29.51 77.76 -43.60 72.50 -42.74 120.13 -77.27 152.83 -110.70 l11.27 -11.63 0 -6.61 c-0.12 -7.72 -1.84 -11.27 -6.86 -14.70 -4.41 -2.94 -13.47 -3.06 -17.63 -0.24 -1.71 1.10 -7.23 5.88 -12.25 10.78 -11.63 11.02 -27.19 24 -45.43 37.60 -15.43 11.51 -46.29 32.21 -46.90 31.47 -0.24 -0.24 2.45 -5.39 6.12 -11.51 7.59 -12.61 18.37 -35.88 23.39 -50.58 3.43 -10.16 3.43 -10.16 14.45 -18.98 13.47 -10.65 51.07 -47.88 62.70 -62.09 21.19 -25.96 30.98 -41.02 30.98 -47.64 0 -5.14 -3.43 -11.39 -7.96 -14.33 -3.92 -2.57 -13.10 -2.57 -17.02 0 -1.59 0.98 -7.72 8.33 -13.72 16.16 -15.19 20.33 -30.62 37.84 -49.60 56.21 -24 23.27 -40.41 36.25 -64.78 50.82 -13.47 8.08 -49.96 26.33 -50.94 25.47 -0.24 -0.37 5.39 -5.76 12.61 -12.12 12.74 -11.39 34.29 -34.53 46.54 -50.09 17.63 -22.53 38.70 -58.90 48.49 -83.89 3.80 -9.43 9.80 -29.27 14.21 -46.54 1.10 -4.29 2.20 -5.39 7.10 -7.84 16.04 -7.72 35.76 -24.25 46.78 -39.07 7.72 -10.53 15.31 -26.21 18.61 -38.82 4.65 -18 4.29 -54.62 -0.73 -61.35 -1.35 -1.96 -2.08 -2.08 -6.86 -0.61 -7.59 2.20 -24.98 11.02 -34.29 17.27 -20.94 14.33 -38.82 39.19 -46.66 65.15 -2.33 7.72 -2.69 12.25 -2.94 32.82 l-0.24 23.88 -4.16 9.18 c-7.35 15.92 -13.72 28.17 -14.70 28.17 -0.49 0 -0.98 -1.84 -0.98 -3.92 0 -6.74 -5.88 -28.90 -11.27 -42.25 -5.27 -13.23 -9.92 -19.10 -16.41 -20.70 -4.90 -1.22 -12.12 1.59 -16.29 6.25 -5.14 6 -5.02 11.27 1.10 28.53 7.10 19.96 9.92 35.76 10.04 54.13 0 26.45 -3.92 38.33 -19.59 59.39 -10.41 14.08 -43.60 47.51 -59.88 60.37 -46.78 36.86 -101.15 62.70 -166.79 79.11 -40.29 10.04 -71.39 14.08 -115.85 15.06 -55.96 1.10 -98.09 -3.80 -157.97 -18.74 -89.27 -22.17 -170.71 -65.27 -224.23 -118.66 -26.82 -26.70 -38.70 -43.84 -43.47 -63.07 -2.33 -9.06 -2.57 -12.61 -1.96 -28.78 0.98 -27.31 5.88 -43.84 21.92 -73.97 6.74 -12.98 7.35 -14.57 6.74 -20.21 -0.49 -5.02 -1.35 -6.74 -4.90 -10.16 -5.14 -4.53 -8.94 -5.88 -14.82 -4.78 -6.37 1.22 -9.92 4.78 -17.51 17.63 -13.72 23.27 -24 51.92 -25.72 71.03 -0.37 4.78 -1.10 8.82 -1.47 8.82 -0.49 0 -2.82 -3.67 -5.27 -8.20 l-4.41 -8.33 0.61 -18.37 c0.49 -14.21 0.24 -20.57 -1.35 -28.04 -5.39 -26.08 -19.72 -48.49 -41.51 -64.54 -11.14 -8.33 -27.92 -17.02 -32.70 -17.02 -3.06 0 -3.67 0.73 -5.39 5.76 -7.23 22.78 -5.63 53.03 4.04 74.33 9.80 21.55 24.86 36.86 54.13 54.86 2.33 1.47 3.55 3.80 4.65 9.18 2.82 12.12 8.45 27.19 17.27 45.07 14.82 30.25 33.80 56.33 59.03 81.19 7.84 7.59 12.98 13.47 11.51 12.98 -1.35 -0.49 -11.88 -5.39 -23.15 -11.14 -48.86 -24.25 -87.31 -51.31 -120.50 -84.50 -8.94 -8.82 -17.27 -16.78 -18.61 -17.39 -3.55 -1.96 -11.88 -1.59 -16.16 0.49 -7.59 4.04 -10.65 14.82 -6.49 22.78 2.82 5.51 21.55 25.23 36.98 38.94 17.51 15.55 37.11 30.25 57.68 43.35 13.96 8.94 16.65 11.14 18.61 15.43 9.18 20.70 49.84 65.39 92.46 101.89 32.33 27.68 74.82 57.80 106.79 75.80 6.25 3.55 11.14 6.61 10.90 6.86 -0.98 0.98 -46.05 -14.21 -65.15 -21.80 -43.11 -17.27 -91.36 -44.82 -130.54 -74.58 -22.90 -17.51 -40.66 -33.19 -66.13 -58.78 -25.35 -25.35 -27.31 -26.70 -35.39 -24.37 -6 1.71 -9.18 4.29 -11.51 8.94 -4.41 9.43 -2.57 13.47 15.43 33.43 34.90 38.70 87.80 80.46 142.42 112.54 14.08 8.20 52.90 27.80 67.35 33.80 l9.80 4.16 -10.41 0.37 c-20.08 0.73 -60.37 -4.41 -88.29 -11.39 -15.80 -3.92 -43.96 -13.10 -56.33 -18.37 -5.02 -2.20 -10.90 -4.41 -13.10 -4.90 -5.27 -1.10 -11.27 1.10 -15.68 5.63 -3.06 3.18 -3.55 4.65 -3.55 10.90 0 10.90 3.67 13.96 28.78 23.88 56.82 22.41 122.34 32.57 183.94 28.78 21.55 -1.22 43.11 -3.67 56.21 -6.25 5.88 -1.10 10.65 -0.73 36.74 3.06 64.66 9.55 67.23 10.16 128.58 29.51 15.92 5.02 29.51 9.18 30.25 9.18 0.86 0 1.47 0.49 1.47 0.98 0 1.35 -26.82 4.78 -50.82 6.49 -49.47 3.55 -121.36 -3.18 -174.75 -16.16 -17.14 -4.16 -22.29 -4.41 -27.55 -1.10 -5.02 3.06 -7.72 8.33 -7.72 15.31 0 4.53 0.73 6.37 4.04 9.92 3.67 4.04 5.39 4.65 25.47 9.67 36.49 8.94 82.05 15.68 119.77 17.63 26.70 1.47 34.04 1.47 59.52 0.12z m139.12 -259.74 c73.11 -5.63 144.75 -26.82 199 -58.78 25.96 -15.31 49.23 -32.57 66.37 -49.23 l8.82 -8.69 0 -13.84 0 -13.84 -65.39 0 c-52.66 0 -67.35 -0.37 -75.93 -1.84 -35.51 -6.25 -64.05 -31.47 -76.17 -67.35 -4.65 -14.08 -5.51 -39.31 -1.96 -54.62 8.57 -36 33.06 -61.97 70.66 -74.95 7.10 -2.45 10.16 -2.57 80.09 -2.94 l72.62 -0.49 -0.49 -35.15 c-0.49 -32.57 -0.73 -35.76 -3.31 -43.11 -7.10 -20.21 -23.63 -35.76 -43.84 -41.02 -6.12 -1.59 -40.41 -1.84 -266.84 -1.84 l-259.86 0 -8.33 2.57 c-10.65 3.31 -16.90 6.37 -23.39 11.63 -2.82 2.33 -5.63 4.16 -6.37 4.16 -0.86 0 -1.35 -3.18 -1.35 -8.33 0 -23.02 20.08 -38.21 50.45 -38.21 6.49 0 10.78 -0.49 10.78 -1.22 0 -1.47 -5.88 -29.02 -6.86 -32.33 -0.73 -2.08 -1.96 -2.20 -17.51 -1.71 -13.84 0.49 -18.12 1.10 -25.59 3.80 -19.47 6.86 -34.78 19.96 -43.11 36.86 -8.94 18.12 -8.57 7.96 -8.57 194.96 l0 167.89 15.06 14.57 c28.90 28.17 59.39 48.86 100.42 67.97 48.49 22.78 111.19 39.31 166.18 43.96 8.45 0.61 17.27 1.47 19.59 1.71 10.65 0.98 59.88 0.61 74.82 -0.61z m283.86 -176.22 c10.16 -5.76 9.92 -3.80 9.92 -68.95 0 -57.19 0 -57.43 -2.69 -62.33 -1.59 -2.69 -5.02 -6.25 -7.84 -7.84 l-5.02 -2.94 -66.62 0 c-52.41 0 -68.33 0.37 -74.70 1.71 -19.96 4.29 -39.55 19.47 -48.74 37.84 -11.63 23.27 -11.76 43.84 -0.49 66.86 9.43 19.47 32.08 35.39 54.86 38.45 2.08 0.24 33.43 0.49 69.80 0.37 l66.13 -0.12 5.39 -3.06z m-13.47 -312.52 c-0.37 -7.84 -1.47 -13.23 -3.18 -17.14 -5.39 -11.76 -20.82 -23.27 -33.80 -24.98 l-5.39 -0.73 -3.31 -16.16 c-9.80 -46.66 -20.57 -93.19 -22.90 -98.09 -4.53 -9.55 -15.31 -16.90 -27.06 -18.49 -6 -0.86 -8.94 -0.12 -119.15 26.94 -294.03 72.50 -289.62 71.39 -294.64 74.82 -9.18 6 -14.70 16.29 -14.70 27.31 0 3.92 1.35 13.10 3.06 20.45 1.84 7.47 3.43 14.70 3.80 16.29 l0.61 2.69 236.10 0 c252.76 0 242.23 -0.24 258.76 6 3.80 1.47 10.16 4.78 14.08 7.47 4.04 2.57 7.47 4.78 7.84 4.78 0.37 0.12 0.37 -5.02 -0.12 -11.14z"/>
  <path d="M505.15 965.73 c-60.86 -23.76 -126.26 -61.11 -174.51 -99.68 -19.23 -15.31 -65.64 -57.07 -67.11 -60.50 -0.24 -0.37 7.84 2.69 17.76 6.98 34.17 14.45 65.27 25.10 160.18 54.50 56.21 17.39 96.38 26.45 145.73 32.57 21.43 2.69 85.48 3.67 109.36 1.84 17.88 -1.47 63.68 -7.72 73.11 -9.92 11.14 -2.69 10.29 -1.59 -7.59 8.69 -35.64 20.70 -62.58 32.94 -99.44 45.19 -46.78 15.55 -83.89 22.66 -131.77 24.98 -12.12 0.61 -12.37 0.61 -25.72 -4.65z"/>
  <path d="M846.82 607.53 c-13.59 -3.55 -21.92 -14.33 -21.92 -28.29 0 -24.74 27.80 -37.96 47.64 -22.66 8.33 6.25 12.37 19.96 9.18 31.35 -1.59 5.63 -8.82 14.08 -14.94 17.14 -5.51 2.82 -14.45 3.92 -19.96 2.45z"/>
 </g>
</svg>